<svg height="512pt" viewBox="0 0 511 512" width="512pt" xmlns="http://www.w3.org/2000/svg"><path d="m407.5 32.519531-31.878906 20.285157c-8.253906-7.042969-17.691406-13.585938-28.121094-17.292969v-35.511719h-60v35.511719c-10.429688 3.707031-19.863281 10.25-28.121094 17.292969l-31.878906-20.285157-30 52.960938 31.648438 19.152343c-.980469 5.320313-1.648438 10.761719-1.648438 16.367188s.667969 11.046875 1.648438 16.367188l-31.648438 19.152343 30 51.960938 31.878906-19.285157c8.253906 7.042969 17.691406 12.585938 28.121094 16.292969v35.511719h60v-35.511719c10.429688-3.707031 19.863281-9.25 28.121094-16.292969l31.878906 19.285157 30-51.960938-31.648438-19.152343c.980469-5.320313 1.648438-10.761719 1.648438-16.367188s-.667969-11.046875-1.648438-16.367188l31.648438-19.152343zm-90 118.480469c-16.570312 0-30-13.433594-30-30 0-16.570312 13.429688-30 30-30s30 13.429688 30 30c0 16.566406-13.429688 30-30 30zm0 0"/><path d="m418.179688 249.992188-40.679688-24.59375v45.601562h-120v-45.601562l-40.679688 24.59375-39.835937-68.992188h-24.484375v-75c0-24.8125-20.1875-45-45-45h-107v30h107c8.277344 0 15 6.722656 15 15v301c0 20.742188 14.179688 38.078125 33.304688 43.265625-2.089844 5.183594-3.304688 10.808594-3.304688 16.734375 0 24.8125 20.1875 45 45 45s45-20.1875 45-45c0-5.285156-1.082031-10.296875-2.761719-15.011719h125.523438c-1.679688 4.714844-2.761719 9.726563-2.761719 15.011719 0 24.8125 20.1875 45 45 45s45-20.1875 45-45c0-5.285156-1.082031-10.285156-2.761719-15h32.761719v-30h-315c-8.277344 0-15-6.722656-15-15v-15h236c51.546875 0 95.097656-37.898438 103.578125-88.742188l20.378906-122.257812h-54.441406zm0 0"/></svg>